<?xml version="1.0" encoding="UTF-8" standalone="no"?>
<svg
   xmlns:dc="http://purl.org/dc/elements/1.1/"
   xmlns:cc="http://creativecommons.org/ns#"
   xmlns:rdf="http://www.w3.org/1999/02/22-rdf-syntax-ns#"
   xmlns:svg="http://www.w3.org/2000/svg"
   xmlns="http://www.w3.org/2000/svg"
   xmlns:sodipodi="http://sodipodi.sourceforge.net/DTD/sodipodi-0.dtd"
   xmlns:inkscape="http://www.inkscape.org/namespaces/inkscape"
   version="1.1"
   viewBox="0.0 0.0 348.0 348.0"
   fill="none"
   stroke="none"
   stroke-linecap="square"
   stroke-miterlimit="10"
   id="svg4136"
   inkscape:version="0.91 r13725"
   sodipodi:docname="Component.svg">
  <metadata
     id="metadata4231">
    <rdf:RDF>
      <cc:Work
         rdf:about="">
        <dc:format>image/svg+xml</dc:format>
        <dc:type
           rdf:resource="http://purl.org/dc/dcmitype/StillImage" />
        <dc:title></dc:title>
      </cc:Work>
    </rdf:RDF>
  </metadata>
  <defs
     id="defs4229">
    <inkscape:path-effect
       effect="bend_path"
       id="path-effect4308"
       is_visible="true"
       bendpath="m 53.841185,277.86898 c -6.318796,-14.93931 -9.81295,-31.36424 -9.81295,-48.60527 0,-68.96412 55.906465,-124.87059 124.870595,-124.87059 68.96412,0 124.87059,55.90647 124.87059,124.87059 0,17.24103 -3.49416,33.66596 -9.81295,48.60527"
       prop_scale="1"
       scale_y_rel="false"
       vertical="false" />
    <inkscape:path-effect
       effect="ruler"
       id="path-effect4256"
       is_visible="true"
       unit="px"
       mark_distance="15"
       mark_length="20"
       minor_mark_length="20"
       major_mark_steps="1"
       shift="0"
       offset="0"
       mark_dir="right"
       border_marks="both" />
  </defs>
  <sodipodi:namedview
     pagecolor="#ffffff"
     bordercolor="#666666"
     borderopacity="1"
     objecttolerance="10"
     gridtolerance="10"
     guidetolerance="10"
     inkscape:pageopacity="0"
     inkscape:pageshadow="2"
     inkscape:window-width="1920"
     inkscape:window-height="1017"
     id="namedview4227"
     showgrid="false"
     inkscape:zoom="0.86356432"
     inkscape:cx="533.11916"
     inkscape:cy="306.02542"
     inkscape:window-x="-8"
     inkscape:window-y="-8"
     inkscape:window-maximized="1"
     inkscape:current-layer="g4141" />
  <clipPath
     id="p.0">
    <path
       d="m0 0l348.0 0l0 348.0l-348.0 0l0 -348.0z"
       clip-rule="nonzero"
       id="path4139" />
  </clipPath>
  <g
     clip-path="url(#p.0)"
     id="g4141">
    <path
       fill="#000000"
       fill-opacity="0.0"
       d="m0 0l348.0 0l0 348.0l-348.0 0z"
       fill-rule="nonzero"
       id="path4143" />
    <path
       d="m-6.0 0l354.01575 0l0 347.9685l-354.01575 0z"
       id="path4145"
       fill-rule="nonzero"
       fill="#ffffff" />
    <path
       fill="#000000"
       fill-opacity="0.0"
       d="m5.07874 5.7758217l336.9134 0l0 337.6693l-336.9134 0z"
       fill-rule="nonzero"
       id="path4147" />
    <path
       stroke="#000000"
       stroke-width="2.0"
       stroke-linejoin="round"
       stroke-linecap="butt"
       d="m5.07874 5.7758217l336.9134 0l0 337.6693l-336.9134 0z"
       fill-rule="nonzero"
       id="path4149" />
    <path
       fill="#000000"
       d="m133.84251 15.666667l74.33072 0l0 56.881886l-74.33072 0z"
       fill-rule="nonzero"
       id="path4151" />
    <path
       fill="#ffffff"
       d="m154.53912 44.089794q0 -4.0625 0.828125 -6.53125q0.84375 -2.484375 2.484375 -3.828125q1.65625 -1.34375 4.15625 -1.34375q1.84375 0 3.234375 0.75q1.390625 0.734375 2.296875 2.140625q0.90625 1.390625 1.421875 3.40625q0.515625 2.0 0.515625 5.40625q0 4.03125 -0.828125 6.515625q-0.828125 2.46875 -2.484375 3.828125q-1.640625 1.34375 -4.15625 1.34375q-3.3125 0 -5.203125 -2.375q-2.265625 -2.859375 -2.265625 -9.3125zm2.890625 0q0 5.640625 1.3125 7.515625q1.328125 1.859375 3.265625 1.859375q1.9375 0 3.25 -1.875q1.328125 -1.875 1.328125 -7.5q0 -5.65625 -1.328125 -7.515625q-1.3125 -1.859375 -3.28125 -1.859375q-1.9375 0 -3.09375 1.640625q-1.453125 2.09375 -1.453125 7.734375zm14.90625 0q0 -4.0625 0.828125 -6.53125q0.84375 -2.484375 2.484375 -3.828125q1.65625 -1.34375 4.15625 -1.34375q1.84375 0 3.234375 0.75q1.390625 0.734375 2.296875 2.140625q0.90625 1.390625 1.421875 3.40625q0.515625 2.0 0.515625 5.40625q0 4.03125 -0.828125 6.515625q-0.828125 2.46875 -2.484375 3.828125q-1.640625 1.34375 -4.15625 1.34375q-3.3125 0 -5.203125 -2.375q-2.265625 -2.859375 -2.265625 -9.3125zm2.890625 0q0 5.640625 1.3125 7.515625q1.328125 1.859375 3.265625 1.859375q1.9375 0 3.25 -1.875q1.328125 -1.875 1.328125 -7.5q0 -5.65625 -1.328125 -7.515625q-1.3125 -1.859375 -3.28125 -1.859375q-1.9375 0 -3.09375 1.640625q-1.453125 2.09375 -1.453125 7.734375z"
       fill-rule="nonzero"
       id="path4153" />
    <path
       d="m15.262467 17.706038l109.88976 0l0 54.83464l-109.88976 0z"
       id="path4155"
       fill-rule="nonzero"
       fill="#ffffff" />
    <path
       stroke="#000000"
       stroke-width="2.0"
       stroke-linejoin="round"
       stroke-linecap="butt"
       d="m15.262467 17.706038l109.88976 0l0 54.83464l-109.88976 0z"
       fill-rule="nonzero"
       id="path4157" />
    <path
       fill="#000000"
       fill-opacity="0.0"
       d="m15.262467 72.65354l39.68504 -54.07874"
       fill-rule="nonzero"
       id="path4159" />
    <path
       stroke="#000000"
       stroke-width="2.0"
       stroke-linejoin="round"
       stroke-linecap="butt"
       d="m15.262467 72.65354l39.68504 -54.07874"
       fill-rule="nonzero"
       id="path4161" />
    <path
       fill="#000000"
       fill-opacity="0.0"
       d="m37.56649 72.65354l39.685043 -54.07874"
       fill-rule="nonzero"
       id="path4163" />
    <path
       stroke="#000000"
       stroke-width="2.0"
       stroke-linejoin="round"
       stroke-linecap="butt"
       d="m37.56649 72.65354l39.685043 -54.07874"
       fill-rule="nonzero"
       id="path4165" />
    <path
       fill="#000000"
       fill-opacity="0.0"
       d="m59.870514 72.65354l39.685043 -54.07874"
       fill-rule="nonzero"
       id="path4167" />
    <path
       stroke="#000000"
       stroke-width="2.0"
       stroke-linejoin="round"
       stroke-linecap="butt"
       d="m59.870514 72.65354l39.685043 -54.07874"
       fill-rule="nonzero"
       id="path4169" />
    <path
       fill="#000000"
       fill-opacity="0.0"
       d="m82.17454 72.65354l39.685043 -54.07874"
       fill-rule="nonzero"
       id="path4171" />
    <path
       stroke="#000000"
       stroke-width="2.0"
       stroke-linejoin="round"
       stroke-linecap="butt"
       d="m82.17454 72.65354l39.685043 -54.07874"
       fill-rule="nonzero"
       id="path4173" />
    <path
       fill="#ffffff"
       d="m216.86351 16.633858l109.889755 0l0 54.83465l-109.889755 0z"
       fill-rule="nonzero"
       id="path4179" />
    <path
       stroke="#000000"
       stroke-width="2.0"
       stroke-linejoin="round"
       stroke-linecap="butt"
       d="m216.86351 16.633858l109.889755 0l0 54.83465l-109.889755 0z"
       fill-rule="nonzero"
       id="path4181" />
    <path
       fill="#000000"
       fill-opacity="0.0"
       d="m216.86351 71.58137l39.685043 -54.078743"
       fill-rule="nonzero"
       id="path4183" />
    <path
       stroke="#000000"
       stroke-width="2.0"
       stroke-linejoin="round"
       stroke-linecap="butt"
       d="m216.86351 71.58137l39.685043 -54.078743"
       fill-rule="nonzero"
       id="path4185" />
    <path
       fill="#000000"
       fill-opacity="0.0"
       d="m239.16754 71.58137l39.685028 -54.078743"
       fill-rule="nonzero"
       id="path4187" />
    <path
       stroke="#000000"
       stroke-width="2.0"
       stroke-linejoin="round"
       stroke-linecap="butt"
       d="m239.16754 71.58137l39.685028 -54.078743"
       fill-rule="nonzero"
       id="path4189" />
    <path
       fill="#000000"
       fill-opacity="0.0"
       d="m261.47156 71.58137l39.68506 -54.078743"
       fill-rule="nonzero"
       id="path4191" />
    <path
       stroke="#000000"
       stroke-width="2.0"
       stroke-linejoin="round"
       stroke-linecap="butt"
       d="m261.47156 71.58137l39.68506 -54.078743"
       fill-rule="nonzero"
       id="path4193" />
    <path
       fill="#000000"
       fill-opacity="0.0"
       d="m283.7756 71.58137l39.685028 -54.078743"
       fill-rule="nonzero"
       id="path4195" />
    <path
       stroke="#000000"
       stroke-width="2.0"
       stroke-linejoin="round"
       stroke-linecap="butt"
       d="m283.7756 71.58137l39.685028 -54.078743"
       fill-rule="nonzero"
       id="path4197" />
    <path
       fill="#000000"
       fill-opacity="0.0"
       d="m113.77165 267.51697l49.259842 0l0 45.480316l-49.259842 0z"
       fill-rule="nonzero"
       id="path4203" />
    <path
       fill="#000000"
       fill-opacity="0.0"
       d="m182.79527 267.51697l49.259842 0l0 45.480316l-49.259842 0z"
       fill-rule="nonzero"
       id="path4209" />
    <path
       fill="#ffffff"
       d="m265.46457 305.50656l0 0c0 -2.3569946 1.9107056 -4.2677307 4.2677 -4.2677307l0 0c1.131897 0 2.2174072 0.449646 3.0177307 1.25c0.800354 0.800354 1.25 1.8858643 1.25 3.0177307l0 0c0 2.3569946 -1.9107361 4.2677307 -4.2677307 4.2677307l0 0c-2.3569946 0 -4.2677 -1.9107361 -4.2677 -4.2677307z"
       fill-rule="nonzero"
       id="path4219" />
    <path
       fill="#ffffff"
       d="m282.8084 305.50656l0 0c0 -2.3569946 1.9107056 -4.2677307 4.2677 -4.2677307l0 0c1.1318665 0 2.2173767 0.449646 3.0177307 1.25c0.800354 0.800354 1.25 1.8858643 1.25 3.0177307l0 0c0 2.3569946 -1.9107361 4.2677307 -4.2677307 4.2677307l0 0c-2.3569946 0 -4.2677 -1.9107361 -4.2677 -4.2677307z"
       fill-rule="nonzero"
       id="path4223" />
    <path
       style="fill:none;fill-opacity:1;stroke:#000000;stroke-opacity:1"
       d="M 61.727814,337.95218 C 34.018545,310.24291 16.880006,271.96292 16.880003,229.68 16.879997,145.11416 85.434159,76.560005 170,76.560001 c 84.56584,0 153.12001,68.554159 153.12,153.119999 0,42.28292 -17.13854,80.56292 -44.84781,108.27218 z"
       id="path4242"
       inkscape:connector-curvature="0"
       sodipodi:nodetypes="cssscc" />
    <path
       style="fill:none;fill-opacity:1;stroke:#000000;stroke-width:16;stroke-miterlimit:10;stroke-dasharray:none;stroke-opacity:1"
       d="m 54.029411,277.87585 c -6.318796,-14.93931 -9.81295,-31.36424 -9.81295,-48.60527 0,-68.96412 55.906469,-124.87059 124.870589,-124.87059 68.96412,0 124.87059,55.90647 124.87059,124.87059 0,17.24103 -3.49416,33.66596 -9.81295,48.60527"
       id="path4245"
       inkscape:connector-curvature="0"
       sodipodi:nodetypes="csssc" />
    <path
       style="fill:none;fill-rule:evenodd;stroke:#000000;stroke-width:1px;stroke-linecap:butt;stroke-linejoin:miter;stroke-opacity:1"
       d="m 44.631141,281.7645 18.420088,-7.79104 M 36.76381,256.34214 56.359725,252.34719 m -22.330026,-22.45438 19.999792,-0.0934 m -17.511275,-26.38085 19.63235,3.81309 m -12.00448,-29.30537 18.492975,7.61417 m -5.968579,-31.08782 16.631791,11.10746 m 0.23233,-31.66799 14.141587,14.14268 m 6.42022,-31.00521 11.10619,16.63264 m 12.36846,-29.15522 7.6127,18.49357 m 17.88014,-26.119462 3.81159,19.632642 m 22.66285,-22.119127 -0.0949,19.999787 M 195.98745,97.130775 191.991,116.72638 m 29.41822,-11.72629 -7.79249,18.41947 m 31.14421,-5.67521 -11.26232,16.52747 m 31.66469,0.52915 -14.27547,14.00742 m 30.94416,6.71059 -16.73552,10.9503 m 29.03671,12.64405 -18.5653,7.43413 m 25.94946,18.12704 -19.66763,3.62799 m 21.90622,22.8692 -19.99805,-0.28307 m 17.01457,26.70485 -19.55712,-4.17957 m 11.95118,28.3506 -18.4201,-7.79104"
       id="path4252"
       inkscape:connector-curvature="0"
       sodipodi:nodetypes="cccccccccccccccccccccccccccccccccccccccccc"
       inkscape:path-effect="#path-effect4308"
       inkscape:original-d="m 54.042353,419.419 0,20 m 15,-20 0,20 m 15,-20 0,20 m 14.999997,-20 0,20 m 15,-20 0,20 m 15,-20 0,20 m 15.00001,-20 0,20 m 15,-20 0,20 m 15,-20 0,20 m 15,-20 0,20 m 15,-20 0,20 m 15,-20 0,20 m 15,-20 0,20 m 15,-20 0,20 m 15,-20 0,20 m 15,-20 0,20 m 15,-20 0,20 m 15,-20 0,20 m 15,-20 0,20 m 15,-20 0,20 m 14.28,-20 0,20" />
    <path
       sodipodi:type="star"
       style="fill:#000000;fill-opacity:1;stroke:none;stroke-width:2;stroke-miterlimit:10;stroke-dasharray:none;stroke-opacity:1"
       id="path4319"
       sodipodi:sides="3"
       sodipodi:cx="149.02588"
       sodipodi:cy="151.07294"
       sodipodi:r1="136.3839"
       sodipodi:r2="68.191948"
       sodipodi:arg1="1.5707963"
       sodipodi:arg2="2.6179939"
       inkscape:flatsided="false"
       inkscape:rounded="0"
       inkscape:randomized="0"
       d="M 149.02588,287.45683 89.969919,185.16891 30.913959,82.880992 l 118.111921,-3e-6 118.11192,-3e-6 -59.05596,102.287924 z"
       inkscape:transform-center-y="-4.9354684"
       transform="matrix(-0.00669369,0.02269218,-0.62396679,-0.18405629,223.8173,241.41244)"
       inkscape:transform-center-x="20.879458" />
  </g>
</svg>
